# xmcd CD database file
#
# Track frame offsets:
#	182
#	1740
#	24157
#	40547
#	43345
#	61975
#	64545
#	78532
#	80765
#	110620
#	111787
#	126392
#	127900
#	155517
#	158625
#	177347
#	200177
#	202470
#	221870
#	224020
#
# Disc length: 3332 seconds
#
# Revision: 3
# Processed by: cddbd v1.5.2PL0 Copyright (c) Steve Scherf et al.
# Submitted via: CDex 1.79
#
DISCID=280d0214
DTITLE=Pinetop Perkins - Portrait of a Delta Bluesman
DYEAR=1993
DGENRE=Blues
TTITLE0=Beginnings
TTITLE1=Come Back Baby
TTITLE2=Big Fat Mama
TTITLE3=The Chimney Story
TTITLE4=Baby, What You Want Me To Do
TTITLE5=Pinetop's First Band
TTITLE6=Chicago Stomp
TTITLE7=Stabbed by an Angry Woman
TTITLE8=Chains of Love
TTITLE9=Earning His Name
TTITLE10=Pinetop's Boogie Woogie
TTITLE11=Delta Ramblings
TTITLE12=Grindin' Man
TTITLE13=The Wolf and the Mule
TTITLE14=Forty-four
TTITLE15=When I Lost My Baby
TTITLE16=Early Piano Influences
TTITLE17=Caldonia
TTITLE18=Joining Muddy Waters' Band
TTITLE19=Pinetop's Blues
EXTD=YEAR: 1993
EXTT0=
EXTT1=
EXTT2=
EXTT3=
EXTT4=
EXTT5=
EXTT6=
EXTT7=
EXTT8=
EXTT9=
EXTT10=
EXTT11=
EXTT12=
EXTT13=
EXTT14=
EXTT15=
EXTT16=
EXTT17=
EXTT18=
EXTT19=
PLAYORDER=
